<svg version="1.0" xmlns="http://www.w3.org/2000/svg" width="1166.000000pt" height="1280.000000pt" viewBox="0 0 1166.000000 1280.000000" preserveAspectRatio="xMidYMid meet">

                                            <g transform="translate(0.000000,1280.000000) scale(0.100000,-0.100000)" fill="#000000" stroke="none">
                                                <path d="M5780 12742 c-587 -740 -1070 -1636 -1325 -2457 -160 -517 -238 -989&#10;                 -239 -1455 -1 -304 19 -426 109 -656 88 -226 145 -323 491 -844 309 -466 404&#10;                 -623 524 -865 261 -528 404 -1044 465 -1680 8 -82 16 -184 16 -225 2 -74 2&#10;                 -75 10 -25 4 28 13 119 19 204 45 625 204 1200 484 1756 131 259 234 428 521&#10;                 855 236 353 318 484 398 645 161 324 210 577 188 976 -30 571 -153 1126 -376&#10;                 1709 -148 387 -391 874 -628 1260 -163 265 -474 707 -578 822 l-34 37 -45 -57z"/>
                                                <path d="M2135 7873 c-523 -47 -993 -229 -1375 -533 -96 -77 -273 -255 -341&#10;                 -345 -258 -337 -396 -720 -415 -1150 -14 -302 38 -627 156 -971 94 -274 262&#10;                 -531 528 -806 577 -595 1290 -894 1957 -818 368 42 647 162 851 365 341 339&#10;                 422 875 200 1330 -175 358 -486 553 -851 532 -131 -8 -238 -36 -355 -94 -79&#10;                 -38 -109 -61 -180 -132 -71 -71 -94 -102 -132 -181 -66 -134 -82 -200 -81&#10;                 -345 0 -141 22 -238 78 -343 89 -170 225 -287 404 -348 l66 -22 -39 -7 c-128&#10;                 -25 -291 34 -407 147 -285 278 -365 758 -189 1124 45 93 135 217 206 286 126&#10;                 119 349 245 509 286 369 95 821 29 1240 -180 585 -293 952 -778 1024 -1356 5&#10;                 -41 11 -76 14 -78 2 -2 37 11 78 30 115 53 262 96 407 119 l134 22 -7 50 c-44&#10;                 339 -167 814 -300 1165 -292 769 -759 1383 -1347 1773 -403 268 -860 431&#10;                 -1333 477 -94 9 -412 11 -500 3z"/>
                                                <path d="M9015 7870 c-864 -91 -1632 -553 -2175 -1310 -319 -445 -573 -1039&#10;                 -714 -1672 -28 -124 -71 -355 -81 -433 l-7 -50 134 -22 c145 -23 292 -66 407&#10;                 -119 41 -19 76 -32 78 -30 3 2 9 37 14 78 35 281 140 543 308 769 441 595&#10;                 1307 934 1956 767 160 -41 383 -167 509 -286 71 -69 161 -193 206 -286 176&#10;                 -366 96 -846 -189 -1124 -116 -113 -279 -172 -407 -147 l-39 7 66 22 c179 61&#10;                 315 178 404 348 56 105 78 202 78 343 1 145 -15 211 -81 345 -38 79 -61 110&#10;                 -132 181 -71 71 -101 94 -180 132 -336 166 -722 114 -982 -131 -99 -93 -161&#10;                 -178 -224 -307 -222 -455 -141 -991 200 -1330 204 -203 483 -323 851 -365 667&#10;                 -76 1380 223 1957 818 266 275 434 532 528 806 255 744 200 1425 -158 1976&#10;                 -83 128 -136 194 -252 314 -358 369 -844 608 -1405 691 -127 19 -545 28 -670&#10;                 15z"/>
                                                <path d="M5523 4154 c-394 -54 -730 -228 -829 -430 -25 -52 -29 -70 -29 -149&#10;                 0 -79 4 -97 29 -149 128 -261 595 -446 1127 -446 190 0 314 12 468 46 340 76&#10;                 594 229 679 411 38 81 39 193 1 273 -106 226 -441 396 -889 450 -117 14 -434&#10;                 10 -557 -6z"/>
                                                <path d="M5207 2667 c-6 -174 -23 -309 -63 -507 -82 -410 -154 -575 -316 -725&#10;                 -155 -143 -402 -212 -623 -172 l-79 14 49 -45 c228 -206 544 -297 801 -232&#10;                 224 57 387 183 556 430 12 18 10 7 -6 -37 -98 -255 -97 -542 0 -842 61 -187&#10;                 279 -566 311 -540 22 19 130 184 176 269 144 268 214 571 188 813 -13 115 -41&#10;                 236 -72 306 -11 24 -18 46 -16 47 2 2 22 -25 44 -59 129 -196 319 -335 533&#10;                 -388 108 -27 283 -23 400 11 126 36 350 168 423 248 18 20 18 20 -20 12 -119&#10;                 -28 -289 -20 -408 17 -71 22 -173 77 -227 122 -157 129 -247 306 -317 621 -63&#10;                 286 -91 490 -91 683 0 69 -4 116 -9 113 -14 -9 -185 -43 -281 -56 -108 -15&#10;                 -546 -15 -665 0 -85 10 -260 46 -275 55 -4 2 -10 -69 -13 -158z"/>
                                            </g>
                                        </svg>