<svg width="30" height="30" viewBox="0 0 30 30" fill="none" xmlns="http://www.w3.org/2000/svg">
<path d="M0.16294 17.0042L6.15667 10.8609C6.69204 10.3107 7.56239 10.2843 8.12966 10.7897L8.13114 10.7878L10.1806 12.6103L15.1242 7.5407C15.6596 6.9909 16.5299 6.96451 17.0972 7.46992L17.0987 7.46801L19.1444 9.28732L23.9566 4.31895L22.201 2.56384C21.9883 2.35045 21.9156 2.05716 22.0042 1.76936C22.0933 1.48159 22.3188 1.28054 22.6151 1.22463L29.0604 0.0149052C29.3256 -0.035253 29.5764 0.0421094 29.7673 0.232964C29.9581 0.423818 30.0349 0.674609 29.9853 0.93984L28.7756 7.38508C28.7199 7.68135 28.5186 7.90685 28.2309 7.99592C27.9431 8.08498 27.6495 8.01186 27.4364 7.79912L25.9762 6.33901L20.2981 12.2004L20.2849 12.216C19.76 12.8062 18.8556 12.8586 18.2656 12.3337L16.2168 10.5112L11.328 15.5241L11.3176 15.5358C10.7926 16.126 9.88826 16.1784 9.29873 15.6535L7.24881 13.831L2.20871 18.9966C1.98831 19.2226 1.62506 19.2272 1.39916 19.0075L0.173478 17.8149C0.059986 17.7049 0.00238832 17.5699 4.87251e-05 17.4118C-0.00186414 17.2539 0.0522083 17.1173 0.16294 17.0042ZM13.5302 16.8658V29.1224C13.5302 29.6053 13.1355 30 12.6526 30H9.56639C9.08308 30 8.68839 29.6058 8.68839 29.1224V18.3806C8.68839 17.8983 9.12302 17.8541 9.4956 18.0173C9.51941 18.0278 9.54109 18.0352 9.56638 18.0418C10.5963 18.3062 11.1415 18.0001 11.7073 17.4784L12.7443 16.5211C12.8843 16.3921 13.0762 16.3609 13.2501 16.4372C13.424 16.5137 13.5302 16.676 13.5302 16.8658ZM20.0621 15.1751V29.1222C20.0621 29.6051 19.6678 29.9998 19.1845 29.9998H16.0982C15.6153 29.9998 15.2207 29.6055 15.2207 29.1222V14.6974C15.2207 14.5788 15.2094 14.3521 15.4381 14.0928L16.0034 13.4524C16.1554 13.2805 16.4039 13.2433 16.5992 13.3629L18.2323 14.3618C18.688 14.6406 18.942 14.7888 19.5003 14.7157C19.6446 14.6965 19.7773 14.7199 19.8903 14.8122C20.0028 14.9044 20.0621 15.0298 20.0621 15.1751ZM26.5939 10.13V29.1224C26.5939 29.6053 26.1992 29.9999 25.7163 29.9999H22.6301C22.1472 29.9999 21.7525 29.6057 21.7525 29.1224V14.0605C21.7525 13.9325 21.7976 13.8218 21.8875 13.7315L25.7918 9.80044C25.9286 9.66315 26.1237 9.62276 26.3031 9.6963C26.4827 9.76984 26.5939 9.93637 26.5939 10.13ZM6.99729 18.2798V29.1224C6.99729 29.6053 6.60219 29.9999 6.11972 29.9999H3.03347C2.55058 29.9999 2.15546 29.6057 2.15546 29.1224V22.2941C2.15546 22.167 2.20009 22.0584 2.28851 21.9674L6.19281 17.9531C6.3282 17.8135 6.52479 17.7727 6.7046 17.8458C6.88504 17.9189 6.99729 18.0854 6.99729 18.2798Z" fill="white"/>
<path d="M0.16294 17.0042L6.15667 10.8609C6.69204 10.3107 7.56239 10.2843 8.12966 10.7897L8.13114 10.7878L10.1806 12.6103L15.1242 7.5407C15.6596 6.9909 16.5299 6.96451 17.0972 7.46992L17.0987 7.46801L19.1444 9.28732L23.9566 4.31895L22.201 2.56384C21.9883 2.35045 21.9156 2.05716 22.0042 1.76936C22.0933 1.48159 22.3188 1.28054 22.6151 1.22463L29.0604 0.0149052C29.3256 -0.035253 29.5764 0.0421094 29.7673 0.232964C29.9581 0.423818 30.0349 0.674609 29.9853 0.93984L28.7756 7.38508C28.7199 7.68135 28.5186 7.90685 28.2309 7.99592C27.9431 8.08498 27.6495 8.01186 27.4364 7.79912L25.9762 6.33901L20.2981 12.2004L20.2849 12.216C19.76 12.8062 18.8556 12.8586 18.2656 12.3337L16.2168 10.5112L11.328 15.5241L11.3176 15.5358C10.7926 16.126 9.88826 16.1784 9.29873 15.6535L7.24881 13.831L2.20871 18.9966C1.98831 19.2226 1.62506 19.2272 1.39916 19.0075L0.173479 17.8149C0.0599863 17.7049 0.00238861 17.5699 4.90148e-05 17.4118C-0.00186385 17.2539 0.0522086 17.1173 0.16294 17.0042Z" fill="#E11414"/>
</svg>
