<svg width="16" height="16" viewBox="0 0 16 16" fill="none" xmlns="http://www.w3.org/2000/svg">
                        <g clip-path="url(#clip0_566_364)">
                            <path d="M13.3333 10.3333C12.5033 10.3333 11.7033 10.2 10.9533 9.95333C10.7233 9.88 10.46 9.93333 10.2767 10.1167L8.81 11.5867C6.92 10.6267 5.38 9.08333 4.41667 7.19667L5.88333 5.72667C6.06667 5.54333 6.12 5.28 6.04667 5.05C5.8 4.3 5.66667 3.49667 5.66667 2.66667C5.66667 2.29667 5.37 2 5 2H2.66667C2.29667 2 2 2.29667 2 2.66667C2 8.92667 7.07333 14 13.3333 14C13.7033 14 14 13.7033 14 13.3333V11C14 10.63 13.7033 10.3333 13.3333 10.3333Z" fill="#F4F4F4"/>
                        </g>
                        <defs>
                            <clipPath id="clip0_566_364">
                                <rect width="16" height="16" fill="white"/>
                            </clipPath>
                        </defs>
                    </svg>