<svg width="49" height="67" viewBox="0 0 49 67" fill="none" xmlns="http://www.w3.org/2000/svg">
<path d="M47.556 40.869L34.7845 36.4725L32.8649 33.6395C32.7101 33.4227 32.4779 33.2834 32.1993 33.2679C32.1064 33.2679 31.998 33.2834 31.9051 33.3144V29.9241C33.0817 28.0819 33.6854 26.0385 33.9795 24.2118C34.2427 24.1808 34.5368 24.1189 34.831 23.9641C35.7134 23.5151 36.3635 22.5863 36.7661 21.1621C37.1531 19.7997 37.0447 18.778 36.441 18.1278C36.2707 17.942 36.0694 17.8027 35.8682 17.6943C36.6577 16.2546 37.2615 14.304 37.215 11.7033C37.1686 8.83938 36.3326 6.64101 34.7227 5.18586C32.9734 3.60686 30.806 3.37459 29.8462 3.34359C29.1651 2.4457 27.3073 0.433286 24.0409 0.0616067C19.4896 -0.464746 14.1642 2.38368 8.26648 8.52955C8.04976 8.76176 7.97235 9.10234 8.0962 9.41196C8.22004 9.72157 8.4987 9.92283 8.82379 9.95378C9.11792 9.96926 11.6568 10.2479 11.5794 13.3905C11.533 15.2172 11.8116 16.6105 12.2141 17.6477C11.9664 17.756 11.7187 17.8953 11.502 18.1276C10.8983 18.7932 10.7899 19.815 11.1769 21.1773C11.5794 22.586 12.2296 23.5303 13.112 23.9793C13.4836 24.1651 13.8551 24.227 14.1492 24.2425C14.4434 26.193 15.0781 28.3294 16.363 30.2181V33.4071C16.2392 33.3297 16.0998 33.2987 15.9141 33.2987C15.6509 33.3142 15.4032 33.438 15.2484 33.6703L13.3289 36.5033L0.557307 40.8997C0.216737 41.0236 0 41.3332 0 41.6893V66.164C0 66.6285 0.371538 67 0.835954 67H47.3086C47.773 67 48.1446 66.6285 48.1446 66.164V41.6581C48.1291 41.3021 47.8969 40.9925 47.5563 40.8686L47.556 40.869ZM33.3598 37.3549L31.8736 44.4915C30.6042 41.7359 28.4679 40.0485 26.7805 39.0887C29.18 38.2218 31.0997 36.5034 32.0904 35.4662L33.3598 37.3549ZM19.9998 65.3285L19.7057 63.7495L21.6408 48.176H26.4708L27.8021 63.966L27.508 65.3438L19.9998 65.3285ZM21.5324 34.3358C22.3219 34.6609 23.1734 34.8312 24.0713 34.8312C25.0311 34.8312 25.9444 34.63 26.8114 34.2584C28.1891 33.6547 29.3193 32.8652 30.2326 31.9828V34.9397C28.8858 36.1936 26.6101 37.8655 24.0557 37.9584C21.5943 37.8655 19.396 36.3174 18.0337 35.0789V32.1376C18.9781 33.0045 20.1237 33.763 21.5324 34.3358ZM24.0713 39.6612C24.8144 39.9244 27.0436 40.8223 28.8239 42.8502L26.7339 46.4882H21.3776L19.334 42.9585C21.1453 40.946 23.3435 39.9552 24.0712 39.6611L24.0713 39.6612ZM18.2506 44.4138L20.0464 47.5099L18.6996 58.3619L16.8109 48.315C17.0276 46.7824 17.5695 45.4975 18.2506 44.4139L18.2506 44.4138ZM28.9942 58.2381L28.0808 47.4945L29.9075 44.3365C30.4958 45.3273 30.9447 46.5037 31.1614 47.897L28.9942 58.2381ZM10.4795 8.65303C15.5108 3.69919 20.1085 1.2997 23.8085 1.70223C27.1213 2.07377 28.6385 4.50426 28.7003 4.59711C28.8706 4.87577 29.1802 5.03057 29.4898 4.99962C29.5208 4.99962 31.8583 4.81385 33.6077 6.39289C34.8617 7.52299 35.5119 9.31877 35.5583 11.6873C35.5892 13.6688 35.2177 15.3716 34.4746 16.7804V15.5419C34.3198 9.72116 29.9542 7.95632 29.7685 7.8789C29.6447 7.83246 29.5208 7.80149 29.4124 7.80149C29.2886 7.80149 29.1802 7.83246 29.0719 7.89438C28.8552 8.01822 28.7158 8.18851 28.6694 8.4362C28.6694 8.45168 27.9263 10.139 21.5947 10.4023C18.8391 10.5107 16.7337 11.4086 15.325 13.0805C14.3497 14.2261 13.8853 15.542 13.6686 16.6875C13.4054 15.8825 13.2196 14.8143 13.2661 13.4055C13.297 10.6654 11.8728 9.27213 10.4795 8.6529L10.4795 8.65303ZM14.7677 22.2141C14.52 22.2296 14.3188 22.3534 14.1795 22.5392C14.0866 22.5392 13.9627 22.5082 13.8234 22.4308C13.4054 22.1986 13.0184 21.5794 12.7707 20.6815C12.5385 19.8456 12.585 19.3812 12.7243 19.2264C12.7862 19.1645 12.8946 19.118 13.0029 19.1026C13.2661 19.4741 13.5293 19.7527 13.7615 19.954C13.9163 20.0933 14.1176 20.1707 14.3188 20.1707C14.4581 20.1707 14.582 20.1397 14.7058 20.0778C15.0154 19.923 15.1857 19.5824 15.1548 19.2264C15.1548 19.1954 14.7987 16.2231 16.5789 14.1333C17.6781 12.8484 19.381 12.1363 21.6412 12.0433C26.8581 11.8266 28.9327 10.6346 29.753 9.73668C30.7748 10.3714 32.7099 12.0433 32.8027 15.5574V19.2418C32.8027 19.5359 32.9421 19.7836 33.1743 19.9385C33.4994 20.1552 33.9328 20.1242 34.227 19.8456C34.4592 19.6288 34.6914 19.3812 34.9081 19.1025C35.032 19.118 35.1713 19.1489 35.2332 19.2263C35.3726 19.3812 35.4345 19.8301 35.1868 20.6815C34.9391 21.5794 34.5521 22.1986 34.1341 22.4308C33.9948 22.5082 33.8554 22.5391 33.7626 22.5391C33.6542 22.4617 33.5149 22.4153 33.3755 22.3998C32.9576 22.3379 32.5086 22.6785 32.4467 23.1429C32.0906 26.4093 30.6974 30.7129 26.146 32.7254C24.8766 33.2827 23.3904 33.2982 22.1675 32.8028C17.3375 30.8059 15.9752 26.3629 15.6655 22.988C15.6345 22.5236 15.232 22.183 14.7676 22.214L14.7677 22.2141ZM16.0217 35.4656C17.0279 36.5183 18.9785 38.2676 21.4399 39.119C19.7215 40.1407 17.4768 41.9364 16.1455 44.7695L14.7522 37.3541L16.0217 35.4656ZM1.65555 42.2617L13.2196 38.2832L15.1238 48.454C15.1238 48.4695 15.1238 48.485 15.1392 48.5004L18.2972 65.3279H1.65517L1.65555 42.2617ZM46.4566 65.3282H29.2116L29.4438 64.1826V64.1671L34.862 38.2529L46.4416 42.247V65.329L46.4566 65.3282Z" fill="white"/>
</svg>
