<svg width="60" height="61" viewBox="0 0 60 61" fill="none" xmlns="http://www.w3.org/2000/svg">
<path d="M2.7512 61H33.0389C33.6001 61 34.0554 60.5452 34.0554 59.9835C34.0554 59.4219 33.6001 58.9671 33.0389 58.9671L2.7512 58.9666C2.35455 58.9666 2.03211 58.6442 2.03211 58.248V2.75218C2.03259 2.35647 2.35455 2.03404 2.7512 2.03404H31.2319V10.2102C31.2319 10.7719 31.6872 11.2267 32.2484 11.2267H42.1299V27.1518C42.1299 27.7134 42.5852 28.1682 43.1463 28.1682C43.7075 28.1682 44.1628 27.7134 44.1628 27.1518L44.1633 10.2294C44.1633 10.2228 44.1652 10.2166 44.1652 10.2095C44.1652 10.1953 44.1618 10.1826 44.1609 10.1689C44.1595 10.1329 44.1557 10.0975 44.15 10.0625C44.1453 10.0308 44.1406 9.99961 44.133 9.96841C44.1254 9.93674 44.1146 9.90553 44.1037 9.87433C44.0928 9.84313 44.0815 9.81192 44.0678 9.78214C44.0541 9.75283 44.038 9.72541 44.0219 9.69751C44.0049 9.6682 43.9874 9.63936 43.9671 9.61194C43.9486 9.58688 43.9283 9.56372 43.908 9.54055C43.8938 9.52448 43.8824 9.50604 43.8668 9.49044C43.8545 9.47815 43.8404 9.46869 43.8281 9.45782C43.8191 9.44978 43.8129 9.44032 43.8035 9.43276L32.9041 0.239697C32.8914 0.228823 32.8763 0.222204 32.8635 0.21133C32.8342 0.18911 32.8044 0.168781 32.7732 0.14987C32.7453 0.13285 32.7174 0.118194 32.6886 0.10401C32.6588 0.0898268 32.629 0.0770617 32.5978 0.0652431C32.5652 0.0538966 32.5335 0.0434952 32.5004 0.0345124C32.4697 0.0264753 32.4394 0.0203289 32.4077 0.0156015C32.3723 0.0104011 32.3373 0.00661894 32.3014 0.00472773C32.2834 0.00425499 32.2664 0 32.2489 0H2.75149C1.2339 0 0 1.23438 0 2.75149V58.2473C0 59.7649 1.2339 60.9993 2.75149 60.9993L2.7512 61Z" fill="white"/>
<path d="M25.8076 39.9209H8.3563C7.79512 39.9209 7.33984 40.3757 7.33984 40.9374C7.33984 41.499 7.79512 41.9538 8.3563 41.9538H25.8076C26.3688 41.9538 26.8241 41.499 26.8241 40.9374C26.8245 40.3757 26.3688 39.9209 25.8076 39.9209Z" fill="white"/>
<path d="M25.6394 47.7832H8.3563C7.79512 47.7832 7.33984 48.238 7.33984 48.7997C7.33984 49.3613 7.79512 49.8161 8.3563 49.8161H25.6394C26.2005 49.8161 26.6558 49.3613 26.6558 48.7997C26.6558 48.238 26.2005 47.7832 25.6394 47.7832Z" fill="white"/>
<path d="M43.763 29.4844C35.0739 29.4844 28.0049 36.5532 28.0049 45.2425C28.0049 53.9317 35.0738 61.0005 43.763 61.0005C52.4521 61.0005 59.5211 53.9317 59.5211 45.2425C59.5211 36.5532 52.4522 29.4844 43.763 29.4844ZM43.763 58.9672C36.1949 58.9672 30.0382 52.8103 30.0382 45.2425C30.0382 37.6743 36.1951 31.5177 43.763 31.5177C51.3311 31.5177 57.4878 37.6746 57.4878 45.2425C57.4882 52.8106 51.3313 58.9672 43.763 58.9672Z" fill="white"/>
<path d="M51.8553 39.779L41.7295 49.9048L36.3488 44.5242C35.9517 44.1271 35.3083 44.1271 34.9111 44.5242C34.514 44.9209 34.514 45.5653 34.9111 45.9619L41.0108 52.0616C41.2093 52.2601 41.4699 52.3589 41.7299 52.3589C41.9904 52.3589 42.2504 52.2601 42.449 52.0616L53.2935 41.2171C53.6906 40.8204 53.6906 40.176 53.2935 39.7793C52.8959 39.3822 52.2524 39.3822 51.8553 39.7789L51.8553 39.779Z" fill="#E11414"/>
<path d="M31.6906 13.147C31.5705 12.7792 31.2528 12.5106 30.8699 12.4548L25.4283 11.6639L22.994 6.7324C22.8233 6.38538 22.4702 6.16602 22.0825 6.16602C21.6948 6.16602 21.3417 6.38538 21.171 6.7324L18.7372 11.6639L13.2946 12.4548C12.9122 12.5106 12.594 12.7787 12.4739 13.147C12.3548 13.5148 12.454 13.919 12.7316 14.1894L16.6702 18.0284L15.7403 23.4482C15.6746 23.8298 15.832 24.2146 16.145 24.4425C16.4589 24.6703 16.8735 24.6992 17.2158 24.5195L22.0835 21.9608L26.9512 24.5195C27.1002 24.5975 27.2623 24.6363 27.4245 24.6363C27.6353 24.6363 27.8448 24.5706 28.0221 24.442C28.335 24.2151 28.4915 23.8293 28.4268 23.4478L27.4968 18.0279L31.4355 14.189C31.7106 13.9185 31.8094 13.5148 31.6908 13.147L31.6906 13.147Z" fill="#E11414"/>
<path d="M36.1456 28.3819V24.4433C36.1456 23.649 35.5324 22.5063 30.2245 21.7518C29.8539 21.6998 29.5107 21.957 29.4582 22.3281C29.4062 22.6988 29.6634 23.042 30.0345 23.0945C33.3259 23.5616 34.5022 24.1795 34.7571 24.4461C34.1557 25.1406 29.6426 26.2904 22.0828 26.2904C14.5232 26.2904 10.0096 25.1411 9.40857 24.4461C9.66199 24.1809 10.8297 23.5677 14.0913 23.1002C14.462 23.0472 14.7197 22.7035 14.6667 22.3338C14.6138 21.9631 14.271 21.7055 13.8994 21.7589C8.62891 22.5139 8.01904 23.6524 8.01904 24.4433V28.382C8.01904 31.4976 20.6425 31.5869 22.0827 31.5869C23.5219 31.5874 36.1452 31.498 36.1452 28.382L36.1456 28.3819Z" fill="#E11414"/>
</svg>
