<svg width="80" height="80" viewBox="0 0 80 80" fill="none" xmlns="http://www.w3.org/2000/svg">
<path d="M79.3696 50.5211L57.5047 28.6562C57.2636 28.4128 56.9346 28.2761 56.5918 28.2761C56.249 28.2761 55.92 28.4128 55.6788 28.6562L54.7785 29.5692L47.5886 22.3281C44.8527 19.5944 41.3087 17.8139 37.4818 17.2512C33.6549 16.6885 29.7488 17.3729 26.3409 19.2028C20.8442 17.3464 14.7895 18.2519 10.0764 21.6362C5.36355 25.0204 2.57014 30.4683 2.57234 36.2705V46.5598H1.28617C0.57591 46.5598 0 47.1357 0 47.846V78.7141C0 79.0552 0.135508 79.3825 0.376664 79.6236C0.61782 79.8648 0.945107 80.0003 1.28617 80.0003H39.8713C40.2123 80.0003 40.5396 79.8648 40.7808 79.6236C41.0219 79.3824 41.1575 79.0552 41.1575 78.7141V70.5211L50.2634 79.6271C50.5063 79.8682 50.8347 80.002 51.1769 80.0003C51.514 79.9991 51.8372 79.8648 52.0772 79.6271L79.369 52.3353C79.6068 52.0952 79.7411 51.772 79.7423 51.4349C79.744 51.0927 79.6102 50.7643 79.369 50.5214L79.3696 50.5211ZM45.7116 24.1421L52.9911 31.4215L51.1778 33.2348L43.8978 25.9811C40.8236 22.9103 36.407 21.5995 32.1551 22.4958C31.2961 21.7798 30.3752 21.143 29.4024 20.5918C32.1751 19.5583 35.1868 19.343 38.0783 19.9723C40.9697 20.6016 43.6191 22.0491 45.7115 24.142L45.7116 24.1421ZM31.1647 53.2478L23.8853 45.9684C21.3117 43.3873 19.7345 39.9785 19.4331 36.3462C19.1322 32.7139 20.1255 29.0925 22.2391 26.1222C23.1268 26.2778 23.9909 26.546 24.8114 26.9198C22.7994 29.3945 21.7792 32.5284 21.9481 35.7134C22.1169 38.8978 23.4628 41.9065 25.7244 44.1545L32.9913 51.4339L31.1647 53.2478ZM20.9528 46.5597H10.2902V36.2703C10.2925 33.7818 11.1974 31.3783 12.8361 29.5054C14.4748 27.6324 16.7371 26.4168 19.2032 26.0839C17.3715 29.2677 16.5573 32.9361 16.8703 36.5961C17.1826 40.2558 18.6071 43.7326 20.9526 46.5598L20.9528 46.5597ZM30.8689 45.672L27.5249 42.3406V42.3412C25.6743 40.5014 24.5914 38.0279 24.4962 35.42C24.4008 32.8126 25.2994 30.2662 27.0104 28.2961C29.4334 30.2362 30.8517 33.1663 30.8689 36.2703V45.672ZM34.8043 49.6074L34.3289 49.132H35.2809L34.8043 49.6074ZM49.3513 35.061L38.586 45.8263V36.2702C38.5911 32.0792 37.1252 28.0191 34.4444 24.7974C37.2935 24.6981 40.057 25.7775 42.0845 27.7815L49.3513 35.061ZM5.14524 36.2703C5.14524 30.7563 8.08682 25.661 12.8623 22.9038C17.6377 20.1471 23.5209 20.1471 28.2963 22.9038C33.0718 25.661 36.0133 30.7563 36.0133 36.2703V46.5596H33.441V36.2703C33.441 31.675 30.9898 27.4291 27.0101 25.1317C23.0305 22.8344 18.1281 22.8344 14.1484 25.1317C10.1688 27.4291 7.71758 31.6752 7.71758 36.2703V46.5596H5.14524V36.2703ZM38.5857 77.4277H2.5729V49.132H23.4089L29.3511 55.0742L28.4382 55.9745H28.4376C28.1941 56.2157 28.0575 56.5447 28.0575 56.8875C28.0575 57.2303 28.1941 57.5593 28.4376 57.801L38.5857 67.9485L38.5857 77.4277ZM51.1775 76.9006L31.1647 56.8496L56.5926 31.4216L76.6437 51.4344L51.1775 76.9006Z" fill="white"/>
<path d="M27.538 58.1345C26.7032 57.3376 25.5933 56.8926 24.4386 56.8926C23.2838 56.8926 22.174 57.3376 21.3391 58.1345L20.58 58.8936L19.821 58.1345C18.9861 57.3376 17.8763 56.8926 16.7215 56.8926C15.5668 56.8926 14.457 57.3376 13.6221 58.1345L13.3132 58.4302C12.2027 59.5482 11.5791 61.06 11.5791 62.6361C11.5791 64.2121 12.2027 65.7241 13.3132 66.8419L19.6671 73.1959V73.1953C19.9083 73.4388 20.2373 73.576 20.5801 73.576C20.9229 73.576 21.2519 73.4388 21.493 73.1953L27.847 66.8414V66.8419C28.9575 65.724 29.5811 64.2121 29.5811 62.6361C29.5811 61.06 28.9575 59.5481 27.847 58.4302L27.538 58.1345ZM26.0205 65.0155L20.5801 70.4691L15.1396 65.0155C14.5063 64.3856 14.1503 63.529 14.1503 62.636C14.1503 61.743 14.5063 60.8865 15.1396 60.2565L15.4353 59.9476C16.1473 59.2413 17.2957 59.2413 18.0077 59.9476L19.6671 61.6196C19.9082 61.863 20.2372 62.0003 20.58 62.0003C20.9228 62.0003 21.2518 61.863 21.4929 61.6196L23.1523 59.9476C23.8752 59.2683 25.0018 59.2683 25.7247 59.9476L26.0204 60.2565C26.6537 60.8864 27.0097 61.743 27.0097 62.636C27.0097 63.529 26.6537 64.3855 26.0204 65.0155H26.0205Z" fill="#E11414"/>
<path d="M54.8676 45.7744C53.7003 45.771 52.5795 46.2332 51.7537 47.0589C50.9281 47.8846 50.4658 49.0053 50.4693 50.1727V51.2401H49.4019L49.4013 51.2407C48.2392 51.2442 47.1253 51.7064 46.3019 52.5269C45.4733 53.3445 45.0094 54.4619 45.0157 55.6263V56.0507C45.0122 57.6279 45.637 59.1408 46.7525 60.2559C47.8676 61.3715 49.3806 61.9963 50.9578 61.9928H59.961C60.3021 61.9928 60.6293 61.8573 60.8705 61.6161C61.1116 61.3749 61.2472 61.0477 61.2472 60.7066V51.7034C61.238 50.1302 60.6098 48.6235 59.4977 47.5108C58.3907 46.3911 56.8795 45.7653 55.3051 45.7745L54.8676 45.7744ZM58.7261 51.7167V59.4337H51.0091V59.4331C50.1053 59.4435 49.2355 59.0921 48.5924 58.4565C47.9499 57.8208 47.5882 56.9544 47.5882 56.0507V55.6263C47.5887 55.1452 47.7782 54.6835 48.1153 54.3402C48.4603 54.0054 48.9208 53.8165 49.4014 53.8131H51.7556C52.0967 53.8131 52.4234 53.6776 52.6651 53.4364C52.9063 53.1947 53.0418 52.868 53.0418 52.5269V50.1727C53.0412 49.6892 53.2365 49.2253 53.5815 48.8865C53.9186 48.5386 54.3837 48.3433 54.8677 48.3468H55.3052C56.1935 48.3531 57.0433 48.7091 57.6715 49.3373C58.2997 49.9654 58.6557 50.8153 58.662 51.7035L58.7261 51.7167Z" fill="#E11414"/>
<path d="M58.7528 22.0327C59.7203 22.345 60.5868 22.9083 61.2649 23.665C61.943 24.4223 62.4075 25.3457 62.6113 26.3413L63.023 28.8109C63.023 29.5211 63.5989 30.097 64.3092 30.097C65.0195 30.097 65.5954 29.5211 65.5954 28.8109L66.084 26.3413C66.2878 25.3456 66.7524 24.4223 67.4305 23.665C68.1086 22.9082 68.9756 22.3449 69.9425 22.0327C70.4702 21.8593 70.8274 21.3666 70.8274 20.8108C70.8274 20.2556 70.4702 19.7623 69.9425 19.5889C68.0087 18.9309 66.5687 17.2956 66.1615 15.2934L65.5954 12.8623C65.5954 12.1521 65.0194 11.5762 64.3092 11.5762C63.5989 11.5762 63.023 12.1521 63.023 12.8623L62.5344 15.2934C62.129 17.2709 60.7114 18.8884 58.8045 19.5504C58.282 19.7014 57.9111 20.1654 57.8783 20.708C57.8301 21.2982 58.1913 21.8454 58.7528 22.0326V22.0327ZM64.3092 17.9944C64.8857 19.1112 65.7085 20.0827 66.7144 20.8366C65.7136 21.5802 64.892 22.5379 64.3092 23.6403C63.7264 22.5379 62.9048 21.5801 61.904 20.8366C62.91 20.0827 63.7327 19.1112 64.3092 17.9944Z" fill="#E11414"/>
<path d="M6.01993 10.4565C6.98742 10.7688 7.85393 11.3321 8.532 12.0888C9.21011 12.8462 9.67462 13.7695 9.87847 14.7651L10.2902 17.2347C10.2902 17.9449 10.8661 18.5209 11.5763 18.5209C12.2866 18.5209 12.8625 17.9449 12.8625 17.2347L13.3511 14.7651C13.555 13.7695 14.0195 12.8461 14.6976 12.0888C15.3757 11.3321 16.2428 10.7688 17.2097 10.4565C17.7373 10.2831 18.0945 9.79045 18.0945 9.23463C18.0945 8.6794 17.7373 8.18617 17.2097 8.01277C15.2759 7.35475 13.8358 5.71942 13.4286 3.71725L12.8625 1.28617C12.8625 0.57591 12.2866 0 11.5763 0C10.866 0 10.2901 0.57591 10.2901 1.28617L9.82734 3.71725C9.4168 5.70045 7.98878 7.31971 6.07158 7.97426C5.54907 8.12526 5.17815 8.58921 5.14542 9.13181C5.09719 9.72207 5.45835 10.2693 6.0199 10.4564L6.01993 10.4565ZM11.5763 6.41821C12.1528 7.535 12.9756 8.50651 13.9815 9.26043C12.9807 10.004 12.1591 10.9617 11.5763 12.0641C10.9935 10.9617 10.1719 10.0039 9.17112 9.26043C10.1771 8.50653 10.9998 7.53505 11.5763 6.41821Z" fill="#E11414"/>
</svg>
