<svg width="84" height="73" viewBox="0 0 84 73" fill="none" xmlns="http://www.w3.org/2000/svg">
<path d="M46.0015 67.5765C46.8009 67.7892 47.6229 67.8963 48.4457 67.8963C50.1552 67.8963 51.8697 67.4387 53.3957 66.5431L80.0217 49.4923C81.6526 48.5231 82.828 46.9811 83.3337 45.152C83.3359 45.1433 83.3381 45.1353 83.3403 45.1265C83.7899 43.3973 83.5858 41.5763 82.7711 40.0155C81.9018 38.3067 80.3759 37.0613 78.4775 36.5075C76.4794 35.9245 74.3058 36.1963 72.4519 37.2915L54.8085 48.7948C54.7553 47.6479 54.4245 46.5249 53.8269 45.5062C52.8563 43.852 51.299 42.6781 49.4518 42.2022L33.9297 38.1252C30.2527 37.1815 26.4482 37.7113 23.2148 39.6147L12.7783 45.7161L11.7705 43.9942C11.2859 43.1657 10.2191 42.8858 9.38832 43.3704L0.861773 48.3576C0.431835 48.609 0.129421 49.0338 0.0332366 49.5221C-0.0636807 50.011 0.0536414 50.5175 0.355331 50.9146L16.6367 72.3135C16.977 72.761 17.4951 73.0007 18.0234 73.0007C18.3236 73.0007 18.6261 72.9242 18.9015 72.7624L24.6255 69.4148C25.0241 69.1816 25.3142 68.7991 25.4308 68.3524C25.5481 67.9071 25.4825 67.4313 25.25 67.0327L23.8677 64.6703L27.2765 62.6759L46.0015 67.5765ZM18.4745 68.9792L4.31639 50.371L9.64327 47.2551L10.6387 48.9566C10.643 48.9639 10.6423 48.9727 10.6467 48.9792L19.9791 64.9283C19.982 64.9334 19.9872 64.9356 19.9901 64.9407L21.3644 67.2894L18.4745 68.9792ZM26.1405 59.3063L22.1086 61.6645L14.5366 48.7212L24.9775 42.6175C27.4142 41.182 30.2861 40.7834 33.0552 41.4953L48.5766 45.5718C49.5276 45.8166 50.3255 46.4193 50.8232 47.2682C51.3238 48.1215 51.4608 49.1191 51.2051 50.0912C51.0666 50.6356 50.7693 51.1289 50.4006 51.5545C50.0158 51.6346 49.6158 51.6711 49.1829 51.6201C49.0233 51.6026 48.8659 51.5749 48.5438 51.4991L35.3747 49.4128C34.4405 49.2634 33.534 49.9112 33.3823 50.8607C33.2315 51.8102 33.8793 52.7021 34.8302 52.853L47.831 54.9036C48.1516 54.9874 48.4788 55.0471 48.7943 55.0806C49.0909 55.1156 49.3853 55.1331 49.6768 55.1331C50.3494 55.1331 51.003 55.0245 51.6385 54.8387C51.6801 54.8314 51.7187 54.819 51.7595 54.8088C51.8025 54.7957 51.8477 54.7913 51.8907 54.7768C51.9409 54.76 51.9752 54.7214 52.0226 54.701C52.1129 54.6624 52.2084 54.6449 52.2936 54.5895L74.2877 40.2486C75.2525 39.678 76.4242 39.5315 77.5049 39.85C78.4719 40.1313 79.2399 40.7499 79.6772 41.6091C80.097 42.4143 80.2026 43.347 79.9745 44.2353C79.7107 45.1754 79.0804 46.0002 78.1936 46.5278L51.5769 63.5729C50.172 64.3963 48.4668 64.6295 46.8914 64.2091L27.4605 59.1249C27.3162 59.0863 27.1683 59.068 27.0204 59.068C26.7136 59.0688 26.4097 59.1497 26.1408 59.3063L26.1405 59.3063Z" fill="white"/>
<path d="M54.6272 0C43.685 0 34.7822 8.90189 34.7822 19.845C34.7822 30.7881 43.6849 39.69 54.6272 39.69C65.5696 39.69 74.4722 30.7881 74.4722 19.845C74.4722 8.90189 65.5703 0 54.6272 0ZM54.6272 36.2071C45.6044 36.2071 38.2641 28.8668 38.2641 19.8448C38.2641 10.8228 45.6044 3.48248 54.6272 3.48248C63.6492 3.48248 70.9895 10.8228 70.9895 19.8448C70.9888 28.8668 63.6485 36.2071 54.6272 36.2071Z" fill="#E11414"/>
<path d="M54.628 13.4791C55.9033 13.4791 56.9403 14.5161 56.9403 15.7906C56.9403 16.7525 57.72 17.5315 58.6812 17.5315C59.6431 17.5315 60.422 16.7518 60.422 15.7906C60.422 13.206 58.7096 11.038 56.3684 10.2933L56.3691 9.652C56.3691 8.69012 55.5894 7.91113 54.6282 7.91113C53.6663 7.91113 52.8873 8.69085 52.8873 9.652V10.294C50.5467 11.0387 48.835 13.2066 48.835 15.7914C48.835 18.986 51.4343 21.5854 54.629 21.5854C55.9042 21.5854 56.9412 22.6223 56.9412 23.8969C56.9412 25.1715 55.9043 26.2084 54.629 26.2084C53.3545 26.2084 52.3174 25.1715 52.3174 23.8969C52.3174 22.935 51.5377 22.156 50.5766 22.156C49.6147 22.156 48.8357 22.9357 48.8357 23.8969C48.8357 26.481 50.5474 28.6496 52.8881 29.3943V30.037C52.8881 30.9989 53.6678 31.7779 54.629 31.7779C55.5908 31.7779 56.3698 30.9981 56.3698 30.037V29.3943C58.7112 28.6503 60.4235 26.4817 60.4235 23.8969C60.4235 20.7023 57.8234 18.1029 54.629 18.1029C53.3545 18.1029 52.3174 17.0659 52.3174 15.7914C52.316 14.5169 53.3537 13.4791 54.6282 13.4791L54.628 13.4791Z" fill="#E11414"/>
</svg>
