<svg width="71" height="60" viewBox="0 0 71 60" fill="none" xmlns="http://www.w3.org/2000/svg">
<path d="M56.6481 38.5979H56.6367L55.6615 38.5962C55.3787 38.5957 55.1079 38.4831 54.9083 38.2829C54.7087 38.0828 54.5966 37.8114 54.5972 37.5286L54.6167 23.8769C54.6173 23.5941 54.7299 23.3232 54.93 23.1236C55.1296 22.9245 55.4005 22.8125 55.6827 22.8125H55.6844L56.6595 22.8141C61.011 22.8201 64.5463 26.3656 64.5403 30.7172C64.5337 35.0627 60.9931 38.5979 56.6481 38.5979L56.6481 38.5979ZM56.7471 24.9472L56.7308 36.4654C59.8646 36.4213 62.4039 33.858 62.4082 30.7145C62.412 27.5687 59.8809 25.0006 56.7471 24.9472H56.7471Z" fill="#E11414"/>
<path d="M18.6062 40.4943H18.6045L8.85294 40.4807C8.57013 40.4802 8.29928 40.3676 8.09967 40.1674C7.90007 39.9673 7.78803 39.6959 7.78858 39.4131L7.81359 21.8602C7.81414 21.2718 8.29166 20.7959 8.87957 20.7959H8.88121L18.6328 20.8095C18.9156 20.81 19.1865 20.9226 19.3861 21.1228C19.5857 21.3229 19.6977 21.5943 19.6972 21.8771L19.6721 39.43C19.6716 40.0179 19.1941 40.4943 18.6062 40.4943ZM9.92219 38.3499L17.5419 38.3608L17.5642 22.9409L9.9445 22.9301L9.92219 38.3499Z" fill="white"/>
<path d="M8.8602 36.5791H8.85857L5.93305 36.5748C4.3461 36.5726 2.8548 35.9526 1.7344 34.829C0.613484 33.7053 -0.00222167 32.2118 6.02391e-06 30.6254C0.00435699 27.3541 2.6699 24.6924 5.94127 24.6924L8.87486 24.6967C9.46334 24.6973 9.9403 25.1753 9.93921 25.7644L9.92562 35.5154C9.92507 35.7982 9.81249 36.0691 9.61235 36.2687C9.41275 36.4677 9.14244 36.5792 8.86018 36.5792L8.8602 36.5791ZM5.94722 26.8243C3.84413 26.8243 2.13521 28.531 2.13201 30.6287C2.13038 31.6462 2.52523 32.6035 3.24423 33.324C3.96269 34.0447 4.91876 34.4422 5.9364 34.4439L7.79583 34.4466L7.8067 26.8275L5.94722 26.8243Z" fill="white"/>
<path d="M45.898 48.3337H45.8964C45.3079 48.3332 44.8309 47.8551 44.832 47.2661L44.8679 19.3378C44.8685 18.7493 45.346 18.2734 45.9339 18.2734H45.9355C46.524 18.274 47.001 18.752 46.9999 19.3411L46.964 47.268C46.9629 47.8565 46.4859 48.3329 45.898 48.3329V48.3337Z" fill="white"/>
<path d="M21.0369 59.9998H21.0304C19.1029 59.9971 17.3962 58.8381 16.6826 57.0477L9.81406 39.8109C9.68298 39.4824 9.72378 39.1098 9.92229 38.8178C10.1208 38.5257 10.4509 38.3506 10.8039 38.3506H10.8055L18.6068 38.3615C19.0424 38.362 19.4345 38.628 19.5955 39.0331L25.3916 53.5772C25.9675 55.0223 25.7902 56.6545 24.9168 57.9424C24.0433 59.2303 22.5929 59.9992 21.0368 59.9992L21.0369 59.9998ZM12.3774 40.4852L18.663 56.2586C19.0519 57.2349 19.9824 57.8669 21.0331 57.868L21.0369 58.934V57.868C21.8979 57.868 22.6686 57.459 23.152 56.7466C23.635 56.0341 23.7296 55.1666 23.4109 54.3671L17.8824 40.4934L12.3774 40.4852Z" fill="white"/>
<path d="M28.3738 28.0261H28.3722L24.4721 28.0206C23.8836 28.0201 23.4066 27.542 23.4077 26.953C23.4083 26.3645 23.8858 25.8887 24.4737 25.8887H24.4753L28.376 25.8941C28.9645 25.8947 29.4415 26.3727 29.4404 26.9617C29.4387 27.5502 28.9618 28.0261 28.3738 28.0261Z" fill="#E11414"/>
<path d="M36.1706 32.6059H36.169L24.4633 32.589C23.8748 32.5885 23.3978 32.1104 23.3989 31.5214C23.3995 30.9329 23.877 30.457 24.4649 30.457H24.4665L36.1722 30.4739C36.7607 30.4744 37.2377 30.9525 37.2366 31.5415C37.2355 32.1294 36.7585 32.6059 36.1706 32.6059Z" fill="#E11414"/>
<path d="M67.3858 39.7957C67.1911 39.7957 66.9942 39.7424 66.8175 39.6309C66.3198 39.3165 66.1713 38.6579 66.4857 38.1603C67.8046 36.0718 68.5018 33.6967 68.5018 31.2918C68.5018 28.9569 67.7855 26.5377 66.4857 24.4792C66.1713 23.9816 66.3198 23.3229 66.8175 23.0086C67.3151 22.6943 67.9737 22.8428 68.288 23.3404C69.8228 25.7698 70.6338 28.5197 70.6338 31.2917C70.6338 34.1003 69.8229 36.8692 68.288 39.2992C68.0852 39.6201 67.7392 39.7957 67.3857 39.7957L67.3858 39.7957Z" fill="#E11414"/>
<path d="M25.4051 49.34H22.3594C21.771 49.34 21.2935 48.8625 21.2935 48.274C21.2935 47.6855 21.771 47.208 22.3594 47.208H25.4051C25.9936 47.208 26.4711 47.6855 26.4711 48.274C26.4711 48.8625 25.9936 49.34 25.4051 49.34Z" fill="white"/>
<path d="M25.4162 20.8094C25.2014 20.8094 24.9882 20.7441 24.8076 20.619C24.5368 20.4308 24.3682 20.1279 24.3513 19.7989C24.3432 19.6422 24.3394 19.4883 24.3394 19.3404C24.3394 14.5543 28.2335 10.6602 33.0196 10.6602C36.0381 10.6602 38.7939 12.1923 40.3917 14.7588C40.5663 15.0384 40.6011 15.3832 40.4863 15.6927C40.3716 16.0016 40.1209 16.2403 39.8065 16.3393L25.7358 20.7605C25.6309 20.7936 25.5232 20.8094 25.416 20.8094L25.4162 20.8094ZM33.0195 12.7922C29.7741 12.7922 27.0728 15.1651 26.5594 18.2673L37.7056 14.7648C36.4873 13.5112 34.8149 12.7922 33.0196 12.7922H33.0195Z" fill="white"/>
<path d="M55.6442 52.2469C55.5359 52.2469 55.4277 52.2306 55.3222 52.1968L18.284 40.4427C17.8407 40.3018 17.54 39.8901 17.5405 39.4251L17.5655 21.8723C17.5661 21.4073 17.8685 20.9961 18.3117 20.8569L55.3834 9.20823C55.707 9.10653 56.0605 9.16472 56.3341 9.3665C56.6076 9.56773 56.7692 9.88699 56.7686 10.2269L56.7104 51.1817C56.7099 51.5211 56.5478 51.8403 56.2731 52.041C56.0882 52.1759 55.8677 52.2469 55.6442 52.2469ZM19.6725 38.6468L54.5791 49.7243L54.6329 11.678L19.6943 22.6567L19.6725 38.6468Z" fill="white"/>
<path d="M9.41512 15.838C7.56752 15.838 6.06494 14.3353 6.06494 12.4879C6.06494 10.6404 7.56766 9.1377 9.41512 9.1377C11.2626 9.1377 12.7653 10.6404 12.7653 12.4879C12.7653 14.3353 11.2626 15.838 9.41512 15.838ZM9.41512 11.2696C8.74344 11.2696 8.19685 11.8162 8.19685 12.4879C8.19685 13.1595 8.74344 13.7061 9.41512 13.7061C10.0868 13.7061 10.6334 13.1595 10.6334 12.4879C10.6334 11.8162 10.0868 11.2696 9.41512 11.2696Z" fill="white"/>
<path d="M25.4051 8.22326C23.1377 8.22326 21.2935 6.379 21.2935 4.11163C21.2935 1.84425 23.1377 0 25.4051 0C27.6725 0 29.5167 1.84425 29.5167 4.11163C29.5167 6.379 27.6725 8.22326 25.4051 8.22326ZM25.4051 2.1319C24.3135 2.1319 23.4254 3.02004 23.4254 4.11163C23.4254 5.20321 24.3135 6.09135 25.4051 6.09135C26.4967 6.09135 27.3848 5.20321 27.3848 4.11163C27.3848 3.02004 26.4967 2.1319 25.4051 2.1319Z" fill="white"/>
</svg>
