<svg width="69" height="62" viewBox="0 0 69 62" fill="none" xmlns="http://www.w3.org/2000/svg">
<path d="M55.2237 0.435077C55.0183 0.161215 54.6958 0 54.3535 0H18.4596C18.1319 0 17.8221 0.1481 17.6157 0.402546L3.47569 17.8056C3.31836 17.9994 3.23193 18.2412 3.23193 18.4908C3.24747 25.9619 5.20868 33.3008 8.92287 39.7835C12.6371 46.2659 17.976 51.6694 24.4141 55.4612L35.3129 61.8503C35.6523 62.0499 36.0738 62.0499 36.4132 61.8503L47.312 55.4612C53.7498 51.6698 59.0887 46.2662 62.8033 39.7835C66.5175 33.3011 68.4787 25.9629 68.4942 18.4908C68.4942 18.2553 68.418 18.0266 68.2767 17.8382L55.2237 0.435077ZM46.2123 53.5829L35.8627 59.6502L25.5131 53.5829C19.4584 50.0167 14.4263 44.9483 10.9045 38.8673C7.38207 32.7869 5.48887 25.9008 5.4072 18.8736L18.9766 2.17414H53.8089L66.3168 18.8513C66.2395 25.8815 64.3482 32.7725 60.8253 38.8574C57.3029 44.9421 52.269 50.014 46.2105 53.5816L46.2123 53.5829Z" fill="white"/>
<path d="M51.1666 5.43847H21.462C21.144 5.43993 20.8419 5.58074 20.6365 5.82354L8.92874 19.664C8.76268 19.8601 8.67188 20.1087 8.67188 20.3656C8.68499 26.5805 10.317 32.6851 13.4068 38.0782C16.4964 43.4716 20.9376 47.9665 26.2925 51.1218L35.3125 56.4103C35.6524 56.6094 36.0734 56.6094 36.4133 56.4103L45.4358 51.1218C50.7908 47.967 55.2319 43.4721 58.3216 38.0782C61.4113 32.6854 63.0433 26.5808 63.0565 20.3656C63.0565 20.1228 62.9754 19.8878 62.8258 19.6965L52.0241 5.85607C51.8177 5.59191 51.5016 5.4375 51.167 5.4375L51.1666 5.43847ZM44.3335 49.2458L35.8636 54.2112L27.3936 49.2458C22.4228 46.3172 18.2891 42.1587 15.3911 37.1699C12.4932 32.181 10.9282 26.5304 10.8465 20.7613L21.9662 7.61323H50.6353L60.8805 20.7376C60.8033 26.5106 59.2403 32.1663 56.3418 37.1599C53.4434 42.1536 49.3077 46.316 44.3334 49.2464L44.3335 49.2458Z" fill="white"/>
<path d="M48.915 18.4306V14.1395C48.915 13.2742 48.5712 12.4439 47.9593 11.8321C47.3475 11.2204 46.5171 10.8765 45.6519 10.8765H43.2766C43.0522 10.2424 42.6375 9.69317 42.0893 9.30378C41.5411 8.91435 40.886 8.70409 40.2135 8.70117H33.6874C32.9721 8.70409 32.2777 8.94202 31.7111 9.37855C31.144 9.8146 30.7366 10.425 30.5506 11.116C30.165 10.9592 29.7528 10.8776 29.3366 10.8766H27.8323C27.0864 10.8795 26.3639 11.1369 25.7841 11.6059C25.2038 12.075 24.8012 12.7281 24.642 13.4565L22.4515 23.6808C21.9407 26.0738 22.4583 28.5716 23.8786 30.5639L25.9452 33.4584C26.7362 34.5626 27.1616 35.8872 27.1611 37.2454V39.1567H24.9857C24.3851 39.1567 23.898 39.6437 23.898 40.2443V44.5951C23.898 44.8835 24.0126 45.1603 24.2166 45.3643C24.4205 45.5682 24.6973 45.6828 24.9857 45.6828H46.7396C47.028 45.6828 47.3048 45.5682 47.5087 45.3643C47.7127 45.1603 47.8273 44.8835 47.8273 44.5951V40.2443C47.8273 39.9559 47.7127 39.6791 47.5087 39.4752C47.3048 39.2712 47.028 39.1567 46.7396 39.1567H44.5642V35.676C44.5642 34.7442 44.9628 33.8565 45.6596 33.2375L50.4032 29.0207L50.4027 29.0202C52.0114 27.5936 52.799 25.4556 52.4994 23.3263C52.2003 21.197 50.8548 19.3587 48.9149 18.4307L48.915 18.4306ZM46.7396 14.1395V17.8227C45.6213 17.7212 44.4962 17.9154 43.4765 18.3849V13.0519H45.6519C45.9403 13.0519 46.2171 13.1665 46.421 13.3704C46.625 13.5744 46.7396 13.8512 46.7396 14.1396V14.1395ZM41.3011 11.9642V19.4498L41.0442 19.578H38.2555C38.1817 19.578 38.1133 19.5955 38.038 19.5999V10.8765H40.2134C40.5018 10.8765 40.7786 10.9911 40.9825 11.195C41.1865 11.3989 41.3011 11.6757 41.3011 11.9641L41.3011 11.9642ZM32.5996 11.9642C32.5996 11.3635 33.0866 10.8765 33.6873 10.8765H35.8626V19.578H32.5996V11.9642ZM45.6519 43.5072H26.0734V41.3319H45.6519V43.5072ZM48.9587 27.3895L44.2151 31.6063C43.0527 32.6391 42.3879 34.1201 42.3889 35.6754V39.156H29.3366V37.2447C29.3395 35.4311 28.7729 33.6622 27.7158 32.1884L25.6492 29.2939C24.5848 27.7997 24.1967 25.9269 24.5789 24.1326L26.7694 13.9083H26.7698C26.8772 13.4072 27.3205 13.0488 27.8333 13.0493H29.3366C29.6251 13.0493 29.9019 13.1639 30.1058 13.3679C30.3097 13.5718 30.4243 13.8481 30.4243 14.137V19.5755H29.0332L28.1922 17.0563L26.1256 17.7438L27.2133 21.0069L27.2138 21.0064C27.3614 21.4532 27.779 21.7537 28.249 21.7528H35.034C34.8635 22.167 34.7756 22.6103 34.7752 23.058C34.7776 24.2778 35.4176 25.4077 36.462 26.037C35.3855 27.0038 34.6654 28.3047 34.4173 29.7298L36.5611 30.0955C36.8155 28.6168 37.8245 27.3791 39.2215 26.8324L39.288 26.8072L41.088 27.166C41.325 27.2146 41.5712 27.182 41.7873 27.0737L43.9626 25.986L42.99 24.0389L41.1473 24.96L37.993 24.3302L37.9935 24.3307C37.3506 24.1846 36.9169 23.582 36.984 22.9259C37.0505 22.2694 37.5963 21.7664 38.2556 21.7528H41.3012C41.4697 21.7528 41.6362 21.7139 41.7872 21.6387L44.238 20.415C45.4772 19.7954 46.9402 19.8187 48.159 20.4776C49.3778 21.1366 50.1984 22.3486 50.3581 23.7247C50.5179 25.1008 49.9969 26.4682 48.9617 27.3893L48.9587 27.3895Z" fill="#E11414"/>
<path d="M64.1428 53.2666H61.9674V55.442H59.792V57.6174H61.9674V59.7928H64.1428V57.6174H66.3181V55.442H64.1428V53.2666Z" fill="#E11414"/>
<path d="M2.17539 6.58866H4.35077V4.41327H6.52616V2.23789H4.35077V0.0625H2.17539V2.23789H0V4.41327H2.17539V6.58866Z" fill="#E11414"/>
</svg>
