<svg width="344" height="188" viewBox="0 0 344 188" fill="none" xmlns="http://www.w3.org/2000/svg">
<circle cx="327" cy="25" r="15" fill="#BD1C2B"/>
<path d="M7 130.5C23.855 130.018 57 93 87.5 103.324C137.5 120.249 154.187 78.8778 167.5 81.5C233.5 94.5 225.5 72.5 248 55.5C270.5 38.5 309.5 61.5 327 26" stroke="white" stroke-width="3.54326" stroke-linecap="round"/>
<g filter="url(#filter0_d_788_140)">
<circle cx="327" cy="25" r="4" fill="white"/>
</g>
<g opacity="0.49">
<g opacity="0.5" filter="url(#filter1_f_788_140)">
<line x1="8.36218" y1="7.36218" x2="8.36217" y2="152.638" stroke="url(#paint0_linear_788_140)" stroke-width="4.72435" stroke-linecap="round"/>
</g>
<g opacity="0.9" filter="url(#filter2_f_788_140)">
<line x1="7.18109" y1="6.18109" x2="7.18108" y2="153.819" stroke="url(#paint1_linear_788_140)" stroke-width="2.36218" stroke-linecap="round"/>
</g>
</g>
<g opacity="0.49">
<g opacity="0.5" filter="url(#filter3_f_788_140)">
<line x1="168.362" y1="7.36218" x2="168.362" y2="152.638" stroke="url(#paint2_linear_788_140)" stroke-width="4.72435" stroke-linecap="round"/>
</g>
<g opacity="0.9" filter="url(#filter4_f_788_140)">
<line x1="167.181" y1="6.18109" x2="167.181" y2="153.819" stroke="url(#paint3_linear_788_140)" stroke-width="2.36218" stroke-linecap="round"/>
</g>
</g>
<g opacity="0.49">
<g opacity="0.5" filter="url(#filter5_f_788_140)">
<line x1="88.3622" y1="7.36218" x2="88.3622" y2="152.638" stroke="url(#paint4_linear_788_140)" stroke-width="4.72435" stroke-linecap="round"/>
</g>
<g opacity="0.9" filter="url(#filter6_f_788_140)">
<line x1="87.1811" y1="6.18109" x2="87.1811" y2="153.819" stroke="url(#paint5_linear_788_140)" stroke-width="2.36218" stroke-linecap="round"/>
</g>
</g>
<g opacity="0.49">
<g opacity="0.5" filter="url(#filter7_f_788_140)">
<line x1="248.362" y1="7.36218" x2="248.362" y2="152.638" stroke="url(#paint6_linear_788_140)" stroke-width="4.72435" stroke-linecap="round"/>
</g>
<g opacity="0.9" filter="url(#filter8_f_788_140)">
<line x1="247.181" y1="6.18109" x2="247.181" y2="153.819" stroke="url(#paint7_linear_788_140)" stroke-width="2.36218" stroke-linecap="round"/>
</g>
</g>
<g opacity="0.49">
<g opacity="0.5" filter="url(#filter9_f_788_140)">
<line x1="328.362" y1="7.36218" x2="328.362" y2="152.638" stroke="url(#paint8_linear_788_140)" stroke-width="4.72435" stroke-linecap="round"/>
</g>
<g opacity="0.9" filter="url(#filter10_f_788_140)">
<line x1="327.181" y1="6.18109" x2="327.181" y2="153.819" stroke="url(#paint9_linear_788_140)" stroke-width="2.36218" stroke-linecap="round"/>
</g>
</g>
<path opacity="0.6" d="M8.77759 181H0.857593V180.136L5.48359 175.384C6.83959 173.968 7.51759 172.78 7.51759 171.82C7.51759 171.004 7.25359 170.35 6.72559 169.858C6.20959 169.366 5.54959 169.12 4.74559 169.12C3.32959 169.12 2.32759 169.756 1.73959 171.028L0.929593 170.542C1.30159 169.786 1.81759 169.21 2.47759 168.814C3.14959 168.406 3.90559 168.202 4.74559 168.202C5.76559 168.202 6.64159 168.526 7.37359 169.174C8.11759 169.822 8.48959 170.704 8.48959 171.82C8.48959 172.504 8.29159 173.182 7.89559 173.854C7.51159 174.526 6.92359 175.264 6.13159 176.068L2.22559 180.082H8.77759V181ZM19.444 179.434C18.616 180.61 17.458 181.198 15.97 181.198C14.482 181.198 13.324 180.61 12.496 179.434C11.668 178.27 11.254 176.692 11.254 174.7C11.254 172.708 11.668 171.13 12.496 169.966C13.324 168.79 14.482 168.202 15.97 168.202C17.458 168.202 18.616 168.79 19.444 169.966C20.272 171.142 20.686 172.72 20.686 174.7C20.686 176.692 20.272 178.27 19.444 179.434ZM13.216 178.822C13.888 179.794 14.806 180.28 15.97 180.28C17.134 180.28 18.052 179.794 18.724 178.822C19.384 177.838 19.714 176.464 19.714 174.7C19.714 172.924 19.384 171.556 18.724 170.596C18.064 169.612 17.146 169.12 15.97 169.12C14.794 169.12 13.876 169.612 13.216 170.596C12.556 171.556 12.226 172.924 12.226 174.7C12.226 176.464 12.556 177.838 13.216 178.822ZM31.0561 181H23.1361V180.136L27.7621 175.384C29.1181 173.968 29.7961 172.78 29.7961 171.82C29.7961 171.004 29.5321 170.35 29.0041 169.858C28.4881 169.366 27.8281 169.12 27.0241 169.12C25.6081 169.12 24.6061 169.756 24.0181 171.028L23.2081 170.542C23.5801 169.786 24.0961 169.21 24.7561 168.814C25.4281 168.406 26.1841 168.202 27.0241 168.202C28.0441 168.202 28.9201 168.526 29.6521 169.174C30.3961 169.822 30.7681 170.704 30.7681 171.82C30.7681 172.504 30.5701 173.182 30.1741 173.854C29.7901 174.526 29.2021 175.264 28.4101 176.068L24.5041 180.082H31.0561V181ZM41.7225 179.434C40.8945 180.61 39.7365 181.198 38.2485 181.198C36.7605 181.198 35.6025 180.61 34.7745 179.434C33.9465 178.27 33.5325 176.692 33.5325 174.7C33.5325 172.708 33.9465 171.13 34.7745 169.966C35.6025 168.79 36.7605 168.202 38.2485 168.202C39.7365 168.202 40.8945 168.79 41.7225 169.966C42.5505 171.142 42.9645 172.72 42.9645 174.7C42.9645 176.692 42.5505 178.27 41.7225 179.434ZM35.4945 178.822C36.1665 179.794 37.0845 180.28 38.2485 180.28C39.4125 180.28 40.3305 179.794 41.0025 178.822C41.6625 177.838 41.9925 176.464 41.9925 174.7C41.9925 172.924 41.6625 171.556 41.0025 170.596C40.3425 169.612 39.4245 169.12 38.2485 169.12C37.0725 169.12 36.1545 169.612 35.4945 170.596C34.8345 171.556 34.5045 172.924 34.5045 174.7C34.5045 176.464 34.8345 177.838 35.4945 178.822Z" fill="white"/>
<path opacity="0.6" d="M156.87 181H148.95V180.136L153.576 175.384C154.932 173.968 155.61 172.78 155.61 171.82C155.61 171.004 155.346 170.35 154.818 169.858C154.302 169.366 153.642 169.12 152.838 169.12C151.422 169.12 150.42 169.756 149.832 171.028L149.022 170.542C149.394 169.786 149.91 169.21 150.57 168.814C151.242 168.406 151.998 168.202 152.838 168.202C153.858 168.202 154.734 168.526 155.466 169.174C156.21 169.822 156.582 170.704 156.582 171.82C156.582 172.504 156.384 173.182 155.988 173.854C155.604 174.526 155.016 175.264 154.224 176.068L150.318 180.082H156.87V181ZM167.537 179.434C166.709 180.61 165.551 181.198 164.063 181.198C162.575 181.198 161.417 180.61 160.589 179.434C159.761 178.27 159.347 176.692 159.347 174.7C159.347 172.708 159.761 171.13 160.589 169.966C161.417 168.79 162.575 168.202 164.063 168.202C165.551 168.202 166.709 168.79 167.537 169.966C168.365 171.142 168.779 172.72 168.779 174.7C168.779 176.692 168.365 178.27 167.537 179.434ZM161.309 178.822C161.981 179.794 162.899 180.28 164.063 180.28C165.227 180.28 166.145 179.794 166.817 178.822C167.477 177.838 167.807 176.464 167.807 174.7C167.807 172.924 167.477 171.556 166.817 170.596C166.157 169.612 165.239 169.12 164.063 169.12C162.887 169.12 161.969 169.612 161.309 170.596C160.649 171.556 160.319 172.924 160.319 174.7C160.319 176.464 160.649 177.838 161.309 178.822ZM179.149 181H171.229V180.136L175.855 175.384C177.211 173.968 177.889 172.78 177.889 171.82C177.889 171.004 177.625 170.35 177.097 169.858C176.581 169.366 175.921 169.12 175.117 169.12C173.701 169.12 172.699 169.756 172.111 171.028L171.301 170.542C171.673 169.786 172.189 169.21 172.849 168.814C173.521 168.406 174.277 168.202 175.117 168.202C176.137 168.202 177.013 168.526 177.745 169.174C178.489 169.822 178.861 170.704 178.861 171.82C178.861 172.504 178.663 173.182 178.267 173.854C177.883 174.526 177.295 175.264 176.503 176.068L172.597 180.082H179.149V181ZM181.153 169.534L184.447 168.4H185.257V181H184.303V169.444L181.387 170.362L181.153 169.534Z" fill="white"/>
<path opacity="0.6" d="M301.113 181H293.193V180.136L297.819 175.384C299.175 173.968 299.853 172.78 299.853 171.82C299.853 171.004 299.589 170.35 299.061 169.858C298.545 169.366 297.885 169.12 297.081 169.12C295.665 169.12 294.663 169.756 294.075 171.028L293.265 170.542C293.637 169.786 294.153 169.21 294.813 168.814C295.485 168.406 296.241 168.202 297.081 168.202C298.101 168.202 298.977 168.526 299.709 169.174C300.453 169.822 300.825 170.704 300.825 171.82C300.825 172.504 300.627 173.182 300.231 173.854C299.847 174.526 299.259 175.264 298.467 176.068L294.561 180.082H301.113V181ZM311.779 179.434C310.951 180.61 309.793 181.198 308.305 181.198C306.817 181.198 305.659 180.61 304.831 179.434C304.003 178.27 303.589 176.692 303.589 174.7C303.589 172.708 304.003 171.13 304.831 169.966C305.659 168.79 306.817 168.202 308.305 168.202C309.793 168.202 310.951 168.79 311.779 169.966C312.607 171.142 313.021 172.72 313.021 174.7C313.021 176.692 312.607 178.27 311.779 179.434ZM305.551 178.822C306.223 179.794 307.141 180.28 308.305 180.28C309.469 180.28 310.387 179.794 311.059 178.822C311.719 177.838 312.049 176.464 312.049 174.7C312.049 172.924 311.719 171.556 311.059 170.596C310.399 169.612 309.481 169.12 308.305 169.12C307.129 169.12 306.211 169.612 305.551 170.596C304.891 171.556 304.561 172.924 304.561 174.7C304.561 176.464 304.891 177.838 305.551 178.822ZM323.391 181H315.471V180.136L320.097 175.384C321.453 173.968 322.131 172.78 322.131 171.82C322.131 171.004 321.867 170.35 321.339 169.858C320.823 169.366 320.163 169.12 319.359 169.12C317.943 169.12 316.941 169.756 316.353 171.028L315.543 170.542C315.915 169.786 316.431 169.21 317.091 168.814C317.763 168.406 318.519 168.202 319.359 168.202C320.379 168.202 321.255 168.526 321.987 169.174C322.731 169.822 323.103 170.704 323.103 171.82C323.103 172.504 322.905 173.182 322.509 173.854C322.125 174.526 321.537 175.264 320.745 176.068L316.839 180.082H323.391V181ZM333.783 181H325.863V180.136L330.489 175.384C331.845 173.968 332.523 172.78 332.523 171.82C332.523 171.004 332.259 170.35 331.731 169.858C331.215 169.366 330.555 169.12 329.751 169.12C328.335 169.12 327.333 169.756 326.745 171.028L325.935 170.542C326.307 169.786 326.823 169.21 327.483 168.814C328.155 168.406 328.911 168.202 329.751 168.202C330.771 168.202 331.647 168.526 332.379 169.174C333.123 169.822 333.495 170.704 333.495 171.82C333.495 172.504 333.297 173.182 332.901 173.854C332.517 174.526 331.929 175.264 331.137 176.068L327.231 180.082H333.783V181Z" fill="white"/>
<circle cx="7" cy="130" r="5" fill="#BD1C2B"/>
<circle cx="168" cy="82" r="5" fill="#BD1C2B"/>
<defs>
<filter id="filter0_d_788_140" x="310.008" y="12.7324" width="33.9839" height="33.9839" filterUnits="userSpaceOnUse" color-interpolation-filters="sRGB">
<feFlood flood-opacity="0" result="BackgroundImageFix"/>
<feColorMatrix in="SourceAlpha" type="matrix" values="0 0 0 0 0 0 0 0 0 0 0 0 0 0 0 0 0 0 127 0" result="hardAlpha"/>
<feOffset dy="4.72435"/>
<feGaussianBlur stdDeviation="6.49598"/>
<feComposite in2="hardAlpha" operator="out"/>
<feColorMatrix type="matrix" values="0 0 0 0 1 0 0 0 0 1 0 0 0 0 1 0 0 0 0.43 0"/>
<feBlend mode="normal" in2="BackgroundImageFix" result="effect1_dropShadow_788_140"/>
<feBlend mode="normal" in="SourceGraphic" in2="effect1_dropShadow_788_140" result="shape"/>
</filter>
<filter id="filter1_f_788_140" x="1.27565" y="0.275649" width="14.1733" height="159.449" filterUnits="userSpaceOnUse" color-interpolation-filters="sRGB">
<feFlood flood-opacity="0" result="BackgroundImageFix"/>
<feBlend mode="normal" in="SourceGraphic" in2="BackgroundImageFix" result="shape"/>
<feGaussianBlur stdDeviation="2.36218" result="effect1_foregroundBlur_788_140"/>
</filter>
<filter id="filter2_f_788_140" x="4.81891" y="3.81891" width="4.72448" height="152.362" filterUnits="userSpaceOnUse" color-interpolation-filters="sRGB">
<feFlood flood-opacity="0" result="BackgroundImageFix"/>
<feBlend mode="normal" in="SourceGraphic" in2="BackgroundImageFix" result="shape"/>
<feGaussianBlur stdDeviation="0.590544" result="effect1_foregroundBlur_788_140"/>
</filter>
<filter id="filter3_f_788_140" x="161.276" y="0.275649" width="14.1733" height="159.449" filterUnits="userSpaceOnUse" color-interpolation-filters="sRGB">
<feFlood flood-opacity="0" result="BackgroundImageFix"/>
<feBlend mode="normal" in="SourceGraphic" in2="BackgroundImageFix" result="shape"/>
<feGaussianBlur stdDeviation="2.36218" result="effect1_foregroundBlur_788_140"/>
</filter>
<filter id="filter4_f_788_140" x="164.819" y="3.81891" width="4.72448" height="152.362" filterUnits="userSpaceOnUse" color-interpolation-filters="sRGB">
<feFlood flood-opacity="0" result="BackgroundImageFix"/>
<feBlend mode="normal" in="SourceGraphic" in2="BackgroundImageFix" result="shape"/>
<feGaussianBlur stdDeviation="0.590544" result="effect1_foregroundBlur_788_140"/>
</filter>
<filter id="filter5_f_788_140" x="81.2756" y="0.275649" width="14.1733" height="159.449" filterUnits="userSpaceOnUse" color-interpolation-filters="sRGB">
<feFlood flood-opacity="0" result="BackgroundImageFix"/>
<feBlend mode="normal" in="SourceGraphic" in2="BackgroundImageFix" result="shape"/>
<feGaussianBlur stdDeviation="2.36218" result="effect1_foregroundBlur_788_140"/>
</filter>
<filter id="filter6_f_788_140" x="84.8189" y="3.81891" width="4.72448" height="152.362" filterUnits="userSpaceOnUse" color-interpolation-filters="sRGB">
<feFlood flood-opacity="0" result="BackgroundImageFix"/>
<feBlend mode="normal" in="SourceGraphic" in2="BackgroundImageFix" result="shape"/>
<feGaussianBlur stdDeviation="0.590544" result="effect1_foregroundBlur_788_140"/>
</filter>
<filter id="filter7_f_788_140" x="241.276" y="0.275649" width="14.1733" height="159.449" filterUnits="userSpaceOnUse" color-interpolation-filters="sRGB">
<feFlood flood-opacity="0" result="BackgroundImageFix"/>
<feBlend mode="normal" in="SourceGraphic" in2="BackgroundImageFix" result="shape"/>
<feGaussianBlur stdDeviation="2.36218" result="effect1_foregroundBlur_788_140"/>
</filter>
<filter id="filter8_f_788_140" x="244.819" y="3.81891" width="4.72448" height="152.362" filterUnits="userSpaceOnUse" color-interpolation-filters="sRGB">
<feFlood flood-opacity="0" result="BackgroundImageFix"/>
<feBlend mode="normal" in="SourceGraphic" in2="BackgroundImageFix" result="shape"/>
<feGaussianBlur stdDeviation="0.590544" result="effect1_foregroundBlur_788_140"/>
</filter>
<filter id="filter9_f_788_140" x="321.276" y="0.275649" width="14.1733" height="159.449" filterUnits="userSpaceOnUse" color-interpolation-filters="sRGB">
<feFlood flood-opacity="0" result="BackgroundImageFix"/>
<feBlend mode="normal" in="SourceGraphic" in2="BackgroundImageFix" result="shape"/>
<feGaussianBlur stdDeviation="2.36218" result="effect1_foregroundBlur_788_140"/>
</filter>
<filter id="filter10_f_788_140" x="324.819" y="3.81891" width="4.72448" height="152.362" filterUnits="userSpaceOnUse" color-interpolation-filters="sRGB">
<feFlood flood-opacity="0" result="BackgroundImageFix"/>
<feBlend mode="normal" in="SourceGraphic" in2="BackgroundImageFix" result="shape"/>
<feGaussianBlur stdDeviation="0.590544" result="effect1_foregroundBlur_788_140"/>
</filter>
<linearGradient id="paint0_linear_788_140" x1="6" y1="80" x2="5" y2="80" gradientUnits="userSpaceOnUse">
<stop stop-color="white"/>
<stop offset="1" stop-color="white" stop-opacity="0"/>
</linearGradient>
<linearGradient id="paint1_linear_788_140" x1="6" y1="80" x2="5" y2="80" gradientUnits="userSpaceOnUse">
<stop stop-color="white"/>
<stop offset="1" stop-color="white" stop-opacity="0"/>
</linearGradient>
<linearGradient id="paint2_linear_788_140" x1="166" y1="80" x2="165" y2="80" gradientUnits="userSpaceOnUse">
<stop stop-color="white"/>
<stop offset="1" stop-color="white" stop-opacity="0"/>
</linearGradient>
<linearGradient id="paint3_linear_788_140" x1="166" y1="80" x2="165" y2="80" gradientUnits="userSpaceOnUse">
<stop stop-color="white"/>
<stop offset="1" stop-color="white" stop-opacity="0"/>
</linearGradient>
<linearGradient id="paint4_linear_788_140" x1="86" y1="80" x2="85" y2="80" gradientUnits="userSpaceOnUse">
<stop stop-color="white"/>
<stop offset="1" stop-color="white" stop-opacity="0"/>
</linearGradient>
<linearGradient id="paint5_linear_788_140" x1="86" y1="80" x2="85" y2="80" gradientUnits="userSpaceOnUse">
<stop stop-color="white"/>
<stop offset="1" stop-color="white" stop-opacity="0"/>
</linearGradient>
<linearGradient id="paint6_linear_788_140" x1="246" y1="80" x2="245" y2="80" gradientUnits="userSpaceOnUse">
<stop stop-color="white"/>
<stop offset="1" stop-color="white" stop-opacity="0"/>
</linearGradient>
<linearGradient id="paint7_linear_788_140" x1="246" y1="80" x2="245" y2="80" gradientUnits="userSpaceOnUse">
<stop stop-color="white"/>
<stop offset="1" stop-color="white" stop-opacity="0"/>
</linearGradient>
<linearGradient id="paint8_linear_788_140" x1="326" y1="80" x2="325" y2="80" gradientUnits="userSpaceOnUse">
<stop stop-color="white"/>
<stop offset="1" stop-color="white" stop-opacity="0"/>
</linearGradient>
<linearGradient id="paint9_linear_788_140" x1="326" y1="80" x2="325" y2="80" gradientUnits="userSpaceOnUse">
<stop stop-color="white"/>
<stop offset="1" stop-color="white" stop-opacity="0"/>
</linearGradient>
</defs>
</svg>
